<svg width="50" height="50" viewBox="0 0 50 50" fill="none" xmlns="http://www.w3.org/2000/svg">
<rect width="50" height="50" fill="black"/>
<path d="M30.071 40H15.095C14.601 40 14.237 39.896 14.003 39.688C13.795 39.454 13.691 39.09 13.691 38.596V13.324C13.691 12.83 13.795 12.479 14.003 12.271C14.237 12.037 14.601 11.92 15.095 11.92H27.536C30.084 11.92 31.969 12.414 33.191 13.402C34.413 14.364 35.024 15.859 35.024 17.887V19.759C35.024 20.851 34.829 21.748 34.439 22.45C34.075 23.126 33.503 23.633 32.723 23.971C34.387 24.127 35.622 24.699 36.428 25.687C37.234 26.675 37.637 28.118 37.637 30.016V33.604C37.637 35.788 37.013 37.4 35.765 38.44C34.543 39.48 32.645 40 30.071 40ZM22.466 18.55V22.762H25.781C26.275 22.762 26.639 22.632 26.873 22.372C27.133 22.112 27.263 21.722 27.263 21.202V20.11C27.263 19.59 27.133 19.2 26.873 18.94C26.639 18.68 26.275 18.55 25.781 18.55H22.466ZM22.466 28.768V33.37H27.536C28.03 33.37 28.394 33.24 28.628 32.98C28.888 32.72 29.018 32.33 29.018 31.81V30.289C29.018 29.769 28.888 29.392 28.628 29.158C28.394 28.898 28.03 28.768 27.536 28.768H22.466Z" fill="white"/>
</svg>
